<?xml version="1.0" encoding="iso-8859-1"?>
<!-- Generator: Adobe Illustrator 19.0.0, SVG Export Plug-In . SVG Version: 6.00 Build 0)  -->
<svg version="1.1" id="Layer_1" xmlns="http://www.w3.org/2000/svg" xmlns:xlink="http://www.w3.org/1999/xlink" x="0px" y="0px"
	 viewBox="0 0 512 512" style="enable-background:new 0 0 512 512;" xml:space="preserve">
<g>
	
		<rect x="395.799" y="212.602" transform="matrix(-0.4999 -0.8661 0.8661 -0.4999 384.1125 769.0189)" style="fill:#B29A7E;" width="36.572" height="122.016"/>
	
		<rect x="37.153" y="255.093" transform="matrix(-0.866 -0.5 0.5 -0.866 43.0274 558.2861)" style="fill:#B29A7E;" width="118.318" height="36.571"/>
</g>
<g>
	<circle style="fill:#E8F4FC;" cx="256.219" cy="365.714" r="146.286"/>
	<circle style="fill:#E8F4FC;" cx="256.219" cy="152.381" r="67.048"/>
</g>
<g>
	<path style="fill:#D1E5F5;" d="M256.215,219.429V512c80.791,0,146.286-65.496,146.286-146.286
		C402.502,284.923,337.008,219.429,256.215,219.429z"/>
	<path style="fill:#D1E5F5;" d="M323.264,152.381c0-37.03-30.018-67.048-67.048-67.048v134.095
		C293.246,219.429,323.264,189.41,323.264,152.381z"/>
</g>
<polygon style="fill:#797781;" points="304.977,67.048 304.977,0 207.453,0 207.453,67.048 183.072,67.048 183.072,103.619 
	329.359,103.619 329.359,67.048 "/>
<g>
	<path style="fill:#E59278;" d="M256.215,432.762h-0.002c-13.442,0-24.379-10.937-24.379-24.38
		c0-13.444,10.937-24.381,24.382-24.381c13.439,0,24.376,10.935,24.381,24.374C280.592,421.828,269.654,432.762,256.215,432.762z"/>
	<path style="fill:#E59278;" d="M256.215,347.427h-0.002c-13.442,0-24.379-10.937-24.379-24.38
		c0-13.444,10.937-24.381,24.382-24.381c13.439,0,24.376,10.935,24.381,24.374C280.592,336.494,269.654,347.427,256.215,347.427z"/>
</g>
<polygon style="fill:#58575D;" points="329.359,67.048 304.977,67.048 304.977,0 256.215,0 256.215,103.619 329.359,103.619 "/>
<g>
</g>
<g>
</g>
<g>
</g>
<g>
</g>
<g>
</g>
<g>
</g>
<g>
</g>
<g>
</g>
<g>
</g>
<g>
</g>
<g>
</g>
<g>
</g>
<g>
</g>
<g>
</g>
<g>
</g>
</svg>
